<svg width="24" height="24" viewBox="0 0 24 24" fill="none" xmlns="http://www.w3.org/2000/svg">
<path d="M12 0C18.6274 0 24 5.37258 24 12C24 18.6274 18.6274 24 12 24C5.37258 24 0 18.6274 0 12C0 5.37258 5.37258 0 12 0ZM10.6621 7L10.6631 7.00098C10.6653 7.01656 10.6586 7.0258 10.6436 7.02734C10.6364 7.02792 10.6292 7.02832 10.6221 7.02832C10.3209 7.03453 10.0197 7.0385 9.71875 7.04688C9.43237 7.05494 9.14576 7.06473 8.85938 7.07715C8.63272 7.08707 8.40605 7.09973 8.17969 7.11523C7.92169 7.13292 7.66308 7.14919 7.40625 7.17773C7.13243 7.20815 6.85733 7.2333 6.58789 7.29785C6.29164 7.36863 6.03719 7.52383 5.8125 7.7373C5.50744 8.02745 5.32734 8.39213 5.24316 8.81445C5.19144 9.07298 5.15491 9.33443 5.12598 9.59668C5.09355 9.88834 5.06841 10.1804 5.05176 10.4736C5.03716 10.732 5.03003 10.9907 5.0166 11.249C5.00287 11.5139 5.0036 11.7797 5.00098 12.0449C4.99864 12.2808 5.0003 12.5171 5.00293 12.7529C5.00643 13.0476 5.02338 13.342 5.03711 13.6367C5.04441 13.7924 5.0516 13.9482 5.06152 14.1035C5.06971 14.232 5.08186 14.3611 5.0918 14.4893C5.10378 14.6443 5.12321 14.7987 5.1416 14.9531C5.17812 15.2587 5.22011 15.5634 5.30566 15.8584C5.42077 16.2549 5.64549 16.5702 5.96094 16.8135C6.18829 16.9888 6.44532 17.09 6.71973 17.1455C6.91539 17.1852 7.11284 17.2075 7.31055 17.2305C7.50488 17.2531 7.6999 17.2716 7.89453 17.2881C8.01899 17.2986 8.14381 17.3073 8.26855 17.3145C8.49869 17.3275 8.72885 17.3382 8.95898 17.3506C9.03048 17.3546 9.10233 17.3547 9.17383 17.3584C9.33134 17.3671 9.48966 17.3713 9.64746 17.376C9.85867 17.3822 10.0703 17.3833 10.2812 17.3936C10.4343 17.401 10.5874 17.3961 10.7402 17.4014C11.1642 17.4156 11.5878 17.417 12.0117 17.417C12.408 17.417 12.8042 17.4118 13.2002 17.4053C13.284 17.404 13.3674 17.4022 13.4512 17.4004C13.7836 17.3926 14.1168 17.3856 14.4492 17.376C14.6555 17.3701 14.862 17.3625 15.0684 17.3525C15.3325 17.3395 15.5972 17.326 15.8613 17.3086C16.0972 17.2931 16.3334 17.278 16.5684 17.252C16.8673 17.2184 17.1696 17.1932 17.4609 17.1094C17.9724 16.9619 18.3511 16.6369 18.5898 16.1309C18.6845 15.9301 18.7303 15.7146 18.7715 15.4971C18.8144 15.2696 18.846 15.0399 18.8711 14.8096C18.8936 14.6063 18.9108 14.4024 18.9248 14.1982C18.9441 13.9171 18.9608 13.6353 18.9736 13.3535C18.9801 13.2146 18.9842 13.0754 18.9883 12.9365C19 12.5449 19.0028 12.1527 18.9961 11.7607C18.9908 11.4545 18.981 11.148 18.9658 10.8418C18.9512 10.5513 18.9352 10.2605 18.9092 9.9707C18.8694 9.52801 18.8235 9.08565 18.709 8.65723C18.5202 7.95086 18.0836 7.502 17.4141 7.31641C17.1816 7.25192 16.9423 7.22234 16.7031 7.19629C16.5197 7.17613 16.3361 7.15809 16.1523 7.14258C15.977 7.12799 15.8006 7.11638 15.625 7.10645C15.3755 7.09249 15.1257 7.08175 14.876 7.06934C14.8117 7.06623 14.7469 7.06436 14.6826 7.0625C14.4533 7.05567 14.2237 7.04607 13.9941 7.04297C13.7684 7.03986 13.5422 7.02734 13.3164 7.02734C13.2998 7.02739 13.2789 7.03042 13.2861 7H10.6621ZM10.6064 10.0557C10.6064 9.99862 10.6097 9.99614 10.6553 10.0234C10.8136 10.1187 10.9721 10.2141 11.1299 10.3105C11.8645 10.7596 12.5993 11.2088 13.334 11.6582C13.6171 11.8314 13.8998 12.0052 14.1826 12.1787C14.1858 12.1806 14.1892 12.1824 14.1924 12.1846C14.2369 12.2139 14.2371 12.2138 14.1924 12.2412C13.8634 12.4435 13.5344 12.6459 13.2051 12.8477C12.5978 13.2191 11.9904 13.591 11.3828 13.9619C11.1345 14.1136 10.885 14.2634 10.6367 14.415C10.6104 14.4309 10.6065 14.422 10.6064 14.3955V10.0557Z" fill="#1F9F9E"/>
</svg>
