<svg width="260" height="243" viewBox="0 0 260 243" fill="none" xmlns="http://www.w3.org/2000/svg">
<path d="M0.00585938 210.487C1.56804 208.58 3.57501 208.01 6.00507 208.102C14.6459 208.417 23.3084 207.635 31.9384 208.608C39.375 209.449 46.3451 211.785 53.0441 215.022C63.2742 219.965 73.488 224.935 83.729 229.85C90.1079 232.908 96.9533 234.049 103.945 234.108C117.652 234.223 131.354 234.136 145.061 234.157C146.531 234.157 147.892 233.902 149.259 233.332C160.33 228.726 171.39 224.093 182.515 219.634C184.766 218.732 185.276 217.407 184.978 215.272C184.435 211.372 181.506 208.809 177.086 208.455C171.575 208.016 166.356 209.471 161.155 210.965C158.556 211.709 156.018 212.659 153.425 213.414C150.735 214.197 148.435 213.061 147.502 210.617C146.639 208.358 147.627 205.843 150.192 204.903C158.583 201.824 167.072 198.95 176.147 199.026C186.025 199.108 192.886 205.148 194.27 214.599C195.17 220.774 192.642 225.418 186.925 227.813C174.791 232.903 162.635 237.938 150.485 242.994H95.8142C87.0595 241.637 79.0696 238.171 71.2532 234.179C65.471 231.224 59.5369 228.579 53.7655 225.608C44.8535 221.013 35.6323 217.553 25.4781 217.325C18.9907 217.178 12.4979 217.135 6.00507 217.211C3.58043 217.238 1.56804 216.717 0.00585938 214.81V210.476L0.00585938 210.487Z" fill="#006980"/>
<path d="M0.00542424 158.458C1.5676 156.552 3.58 156.031 6.00463 156.063C13.7613 156.172 21.5234 155.971 29.2746 156.15C34.7314 156.275 39.9224 155.487 45.2056 153.994C56.4989 150.795 67.6945 151.457 78.3857 156.699C84.9381 159.909 90.2702 164.563 94.0183 170.859C95.1574 172.77 96.6165 173.878 98.6398 174.688C105.675 177.501 112.651 180.456 119.632 183.394C124.665 185.513 129.314 188.261 133.127 192.232C140.206 199.602 141.898 210.443 137.461 219.639C136.089 222.485 133.762 223.3 130.399 221.915C121.807 218.384 113.242 214.789 104.666 211.22C97.5061 208.244 90.3407 205.267 83.1807 202.291C83.0125 202.22 82.8498 202.149 82.6817 202.073C79.4651 200.65 78.2392 198.315 79.3512 195.729C80.4631 193.144 82.9908 192.27 86.2291 193.568C92.0873 195.92 97.9021 198.38 103.728 200.808C111.723 204.132 119.74 207.407 127.687 210.834C129.976 211.823 130.399 211.144 130.442 208.933C130.578 202.334 126.916 198.136 121.78 194.926C116.165 191.417 109.819 189.461 103.787 186.833C99.6541 185.035 95.472 183.335 91.2845 181.667C89.5108 180.961 88.3229 179.815 87.455 178.093C82.4701 168.224 74.1385 163.211 63.4202 161.886C56.2277 160.995 49.2141 161.886 42.4501 164.525C40.9855 165.096 39.4776 165.166 37.9317 165.166C27.2893 165.156 16.6416 165.107 5.99921 165.199C3.57457 165.221 1.56218 164.705 0 162.804V158.469L0.00542424 158.458Z" fill="#006980"/>
<path d="M130.188 78.0614C134.066 78.0614 137.944 78.0451 141.817 78.0614C145.929 78.0831 147.399 79.5225 147.42 83.5744C147.448 89.5327 147.491 95.4911 147.393 101.449C147.361 103.454 148.033 104.138 150.046 104.105C155.996 104.008 161.947 104.051 167.897 104.078C171.938 104.095 173.392 105.572 173.403 109.684C173.424 117.63 173.424 125.571 173.403 133.517C173.392 137.623 171.938 139.106 167.897 139.128C161.947 139.155 155.996 139.198 150.046 139.101C148.039 139.068 147.361 139.752 147.393 141.757C147.491 147.623 147.442 153.494 147.42 159.36C147.404 163.656 145.994 165.128 141.812 165.139C133.876 165.161 125.94 165.161 118.01 165.139C113.91 165.128 112.434 163.673 112.412 159.626C112.385 153.668 112.336 147.71 112.44 141.751C112.472 139.736 111.783 139.068 109.782 139.101C103.924 139.198 98.0599 139.15 92.2017 139.128C87.9057 139.117 86.4412 137.705 86.4303 133.517C86.4086 125.571 86.4086 117.63 86.4303 109.684C86.4412 105.572 87.8895 104.1 91.9359 104.078C97.8863 104.051 103.837 104.008 109.787 104.105C111.794 104.138 112.472 103.454 112.44 101.449C112.342 95.4911 112.385 89.5327 112.412 83.5744C112.429 79.5225 113.904 78.0886 118.01 78.0614C122.068 78.0397 126.125 78.0614 130.182 78.0614H130.188ZM138.389 144.614C138.389 141.637 138.373 138.655 138.389 135.679C138.422 131.589 139.865 130.112 143.916 130.095C149.867 130.068 155.817 130.019 161.762 130.122C163.785 130.155 164.458 129.449 164.398 127.456C164.279 123.577 164.252 119.688 164.409 115.816C164.501 113.578 163.59 113.057 161.551 113.089C155.692 113.187 149.834 113.143 143.971 113.116C139.886 113.1 138.411 111.639 138.389 107.587C138.362 101.629 138.313 95.6703 138.416 89.7174C138.449 87.6969 137.744 87.018 135.753 87.0777C131.88 87.1972 127.996 87.2244 124.129 87.0668C121.894 86.9745 121.373 87.887 121.406 89.9293C121.503 95.7953 121.46 101.661 121.433 107.527C121.417 111.612 119.952 113.095 115.906 113.111C109.955 113.138 104.005 113.187 98.0599 113.084C96.0367 113.051 95.3695 113.763 95.4291 115.756C95.5431 119.634 95.5756 123.523 95.4183 127.396C95.3261 129.639 96.2428 130.15 98.2823 130.117C104.14 130.019 109.999 130.068 115.862 130.09C119.947 130.106 121.422 131.567 121.438 135.624C121.465 141.583 121.514 147.541 121.411 153.494C121.379 155.52 122.089 156.188 124.08 156.128C127.953 156.014 131.831 156.02 135.704 156.128C137.63 156.183 138.519 155.634 138.422 153.543C138.286 150.572 138.389 147.59 138.389 144.608V144.614Z" fill="#006980"/>
<path d="M136.766 0.0215874C143.444 0.0215874 150.115 0.0976284 156.793 0.00529286C165.634 -0.119632 173.944 1.9715 181.858 5.78441C191.529 10.4446 201.228 15.0451 210.823 19.852C219.236 24.0614 228.154 25.8647 237.462 26.0222C243.233 26.12 249.01 26.0222 254.782 26.0548C258.123 26.0765 260 27.7548 259.989 30.5847C259.978 33.4036 258.096 35.1363 254.749 35.0656C245.653 34.881 236.534 35.6522 227.449 34.5551C220.207 33.6806 213.4 31.3885 206.864 28.2274C196.715 23.3227 186.583 18.3746 176.423 13.4863C169.963 10.374 163.036 9.17367 155.952 9.11392C142.239 8.99443 128.527 9.0922 114.82 9.05961C113.247 9.05961 111.809 9.37464 110.367 9.97753C99.3771 14.5509 88.393 19.1459 77.3438 23.5726C75.109 24.4688 74.5558 25.7669 74.8487 27.9178C75.3857 31.8285 78.3039 34.403 82.7192 34.7561C88.2303 35.2014 93.4538 33.7404 98.6557 32.2521C101.254 31.508 103.792 30.5575 106.391 29.8025C109.092 29.0149 111.381 30.1393 112.319 32.5889C113.214 34.9244 112.102 37.4175 109.39 38.4332C102.111 41.1598 94.6743 43.3976 86.9122 44.1526C77.4577 45.0705 70.0591 41.0566 66.8913 33.5394C65.4105 30.0306 64.9766 26.4133 65.9909 22.6872C66.8479 19.5424 68.5891 17.2177 71.7026 15.9413C83.9668 10.9009 96.2039 5.81157 108.452 0.727683C109.819 0.162807 111.224 0.0215874 112.683 0.0270189C120.711 0.0487449 128.738 0.0378819 136.766 0.0378819V0.0215874Z" fill="#006980"/>
<path d="M238.747 87.1104C237.662 87.1104 236.572 87.2081 235.504 87.0941C226.369 86.1273 217.745 89.0494 208.881 90.3258C190.651 92.9546 175.354 87.5775 165.113 71.2558C164.386 70.0989 163.432 69.4743 162.228 68.98C154.975 65.9927 147.718 63.0053 140.503 59.9311C133.859 57.1013 127.789 53.4459 123.726 47.1997C118.725 39.5195 119.083 31.4972 122.495 23.3988C123.688 20.5636 126.162 19.9498 129.628 21.3837C140.628 25.9299 151.612 30.5195 162.602 35.0874C167.516 37.1297 172.447 39.1285 177.334 41.225C180.176 42.4417 181.364 44.5817 180.703 46.9172C179.862 49.8828 177.139 51.056 173.7 49.6819C166.92 46.9661 160.193 44.12 153.446 41.3228C146.28 38.3517 139.088 35.4513 131.977 32.3608C129.731 31.3831 129.46 32.1381 129.389 34.1641C129.178 40.2691 132.389 44.359 137.021 47.6613C140.585 50.2033 144.686 51.6589 148.672 53.3264C155.16 56.0367 161.653 58.7525 168.173 61.3759C170.217 62.2015 171.568 63.4996 172.582 65.4712C177.589 75.2208 185.931 80.1363 196.552 81.2986C203.62 82.0753 210.601 81.4018 217.289 78.7187C218.471 78.2461 219.703 78.0452 220.988 78.0506C232.265 78.0669 243.537 78.0397 254.814 78.0723C258.291 78.0832 260.314 80.158 259.961 83.1725C259.69 85.4972 257.927 87.0506 255.248 87.0778C249.748 87.1375 244.242 87.0941 238.742 87.0941V87.1049L238.747 87.1104Z" fill="#006980"/>
<path d="M38.7291 123.838C38.7508 102.449 44.2238 85.1115 55.0343 69.4362C55.4466 68.8442 55.848 68.2413 56.2927 67.6764C58.419 64.9498 61.039 64.3686 63.2846 66.1013C65.4489 67.7742 65.7201 70.3976 63.7836 73.0644C55.4411 84.5303 50.3912 97.2835 48.5795 111.351C47.4295 120.291 47.9937 129.15 49.5341 137.982C50.1145 141.333 48.7422 143.641 45.9487 144.152C43.2312 144.652 41.1049 142.865 40.4594 139.508C39.3149 133.561 38.5663 127.58 38.7345 123.833L38.7291 123.838Z" fill="#006980"/>
<path d="M221.11 119.33C221.077 141.154 215.382 158.801 204.164 174.682C203.177 176.084 202.239 177.599 200.416 178.017C198.518 178.457 196.782 178.066 195.594 176.41C194.211 174.487 194.379 172.488 195.724 170.625C198.854 166.302 201.653 161.783 203.931 156.949C211.395 141.121 213.516 124.577 210.614 107.354C210.494 106.642 210.402 105.925 210.304 105.208C209.881 102.118 211.373 99.8146 214.085 99.3638C216.542 98.9564 218.783 100.727 219.363 103.666C220.535 109.608 221.283 115.599 221.115 119.33H221.11Z" fill="#006980"/>
<path d="M73.9055 61.4899C71.4049 61.5659 69.2027 59.4422 69.1701 56.9383C69.143 54.3529 71.7521 51.686 74.334 51.6589C76.6447 51.6371 78.8795 53.7663 78.9609 56.0747C79.0531 58.6003 76.4223 61.4138 73.9001 61.4899H73.9055Z" fill="#006980"/>
<path d="M191.258 186.751C191.258 189.147 188.746 191.591 186.322 191.553C183.886 191.515 181.83 189.489 181.765 187.072C181.695 184.416 184.071 182.14 186.848 182.2C189.305 182.254 191.258 184.269 191.258 186.751Z" fill="#006980"/>
</svg>
