<svg width="260" height="260" viewBox="0 0 260 260" fill="none" xmlns="http://www.w3.org/2000/svg">
<path d="M260 71.026C258.547 76.9986 254.989 81.5582 250.694 85.8178C240.85 95.5773 231.239 105.571 221.465 115.401C220.164 116.713 219.793 117.704 220.601 119.529C223.468 126.005 222.345 132.069 217.511 137.101C206.945 148.101 193.939 154.429 178.824 156.427C171.643 157.378 164.487 157.179 157.407 155.644C155.669 155.268 155.003 155.848 154.398 157.352C152.091 163.096 152.04 163.096 157.92 165.002C171.343 169.353 184.791 173.618 198.071 178.396C199.962 179.077 201.309 178.711 202.945 177.573C213.567 170.182 224.871 168.942 236.408 175.046C247.706 181.024 253.413 190.845 253.418 203.552C253.424 220.479 238.674 234.935 222.055 234.798C206.396 234.666 193.599 224.159 190.539 208.773C190.209 207.121 189.553 206.317 188.013 205.784C173.401 200.731 158.693 195.968 143.989 191.195C141.789 190.479 140.894 190.982 140.035 193.025C134.673 205.774 128.315 217.963 119.345 228.622C106.151 244.298 90.2076 255.598 69.6239 259.065C35.3736 264.829 6.1956 243.251 0.813345 211.101C-4.46218 179.616 16.4061 149.799 47.7289 143.435C61.3751 140.664 74.7977 142.215 88.1695 145.143C99.4778 147.623 110.608 150.805 121.723 154.028C123.568 154.561 124.463 154.317 125.058 152.391C125.932 149.57 127.024 146.81 128.158 144.085C128.727 142.718 128.61 141.793 127.451 140.771C116.616 131.195 110.222 119.204 108.504 104.844C107.564 96.9955 107.813 89.1167 110.003 81.4667C111.676 75.6364 115.731 71.9664 121.602 70.5482C123.446 70.1009 124.127 69.1707 124.346 67.4983C126.237 53.1894 128.265 38.8907 130.008 24.5615C131.715 10.5271 143.995 1.45376 158.134 4.04614C158.881 4.18338 159.643 4.26979 160.37 4.49345C163.48 5.44907 166.271 5.65239 168.853 2.91261C170.621 1.0522 173.442 0.889541 175.8 0C179.348 0 182.9 0 186.453 0C187.18 0.208407 187.906 0.426979 188.633 0.630303C197.283 2.99902 201.888 10.3644 200.246 19.209C198.076 30.8747 185.208 37.076 175.876 30.9001C171.572 28.0485 167.48 24.4751 166.037 19.6207C164.426 14.1971 160.883 13.2719 156.294 12.5044C147.603 11.0456 140.117 16.1744 138.866 24.897C137.682 33.1672 136.564 41.4526 135.436 49.7329C134.577 56.0055 133.713 62.278 132.92 68.5607C132.747 69.923 132.371 71.331 133.967 72.4035C140.533 76.8309 142.546 82.9814 141.103 90.6975C138.607 104.051 143.507 114.563 154.708 120.683C167.628 127.738 183.068 125.659 193.543 115.295C198.752 110.14 204.688 108.539 211.611 110.938C212.881 111.381 213.644 111.035 214.497 110.171C225.628 98.8254 236.824 87.5511 247.889 76.1447C251.055 72.8762 252.046 68.7996 251.385 64.2045C250.567 58.5064 246.379 55.4158 242.537 52.0102C241.82 51.3799 241.109 51.9746 240.428 52.2745C236.728 53.9265 232.835 54.633 228.815 54.3535C223.326 53.9672 218.03 52.8743 214.101 48.5689C208.49 42.4133 209.471 31.932 216.21 25.1816C221.603 19.7732 228.784 18.8938 235.173 23.0874C240.402 26.5185 244.169 31.2305 246.339 37.137C246.954 38.8094 247.452 40.6037 247.233 42.3421C247.02 44.045 247.67 44.9955 248.86 45.9715C254.191 50.3429 258.592 55.365 260.015 62.4V71.026H260ZM60.75 251.206C66.5541 251.313 74.0405 249.763 81.2371 246.83C97.4703 240.206 109.5 228.637 119.198 214.364C125.312 205.367 129.555 195.404 133.931 185.512C136.142 180.521 137.332 180.023 142.561 181.69C157.61 186.483 172.669 191.261 187.556 196.543C189.548 197.249 190.646 197.183 191.118 194.784C191.474 192.99 192.287 191.261 193.04 189.569C194.508 186.27 194.564 186.244 191.185 185.131C176.344 180.236 161.498 175.361 146.648 170.502C142.449 169.13 141.438 167.147 142.983 163.03C144.02 160.26 145.041 157.484 146.175 154.755C146.805 153.245 146.409 152.493 144.92 151.852C142.597 150.856 140.315 149.727 138.124 148.462C136.574 147.562 135.898 147.969 135.339 149.519C134.109 152.935 132.788 156.32 131.482 159.711C129.749 164.199 128.361 164.855 123.756 163.589C113.332 160.727 102.939 157.738 92.4641 155.09C79.9818 151.934 67.3825 149.794 54.3767 151.212C25.9 154.312 6.96812 178.843 8.88927 205.342C10.7799 231.423 32.6393 251.77 60.7348 251.206H60.75ZM168.705 148.66C186.565 148.406 199.87 142.733 210.823 131.566C213.974 128.353 214.096 123.59 211.209 120.642C208.216 117.577 203.636 117.602 200.328 120.876C190.712 130.391 179.216 134.682 165.768 133.004C153.001 131.413 142.648 125.598 136.076 114.212C131.283 105.901 130.862 96.9142 132.778 87.6782C133.606 83.688 131.09 79.774 127.35 78.8997C123.162 77.9238 119.162 80.2264 118.191 84.4352C115.249 97.1632 116.174 109.561 122.704 121.023C133.296 139.602 150.073 147.725 168.7 148.66H168.705ZM198.722 203.08C198.722 215.736 208.953 226.065 221.532 226.106C234.293 226.147 244.641 215.874 244.672 203.135C244.702 190.174 234.725 180.155 221.74 180.114C208.902 180.068 198.722 190.224 198.722 203.08ZM191.911 15.7932C191.805 13.0635 190.788 10.7711 188.191 9.68837C183.83 7.8737 179.317 7.80762 174.865 9.36305C172.532 10.1763 171.968 11.5742 172.857 13.9582C174.377 18.0297 177.035 21.2371 180.644 23.6364C183.134 25.2934 185.635 24.9834 187.962 23.3517C190.549 21.5421 191.779 18.9447 191.911 15.7932ZM229.577 45.5699C231.757 45.5343 233.44 45.5445 235.091 45.0667C238.481 44.0907 239.345 42.4641 237.882 39.2211C236.362 35.8612 234.11 33.0248 231.132 30.8137C228.82 29.0956 225.877 28.9431 223.539 30.3765C220.683 32.1251 218.736 35.9781 219.194 38.9771C219.661 42.0168 221.211 44.1314 224.307 44.8888C226.197 45.3513 228.108 45.6868 229.577 45.5699Z" fill="#006980"/>
<path d="M61.8583 162.649C73.2682 162.618 83.1382 164.916 92.9523 167.462C101.531 169.689 110.065 172.113 118.608 174.482C123.096 175.722 124.204 177.964 122.39 182.208C116.53 195.938 109.983 209.25 99.3765 220.118C91.697 227.987 82.9959 234.29 72.3331 237.375C57.3146 241.721 43.2923 239.84 31.8721 228.556C21.3668 218.171 18.0836 205.245 22.2308 191.002C26.4797 176.403 36.4107 167.361 51.2056 163.777C55.0783 162.837 59.0324 162.481 61.8532 162.654L61.8583 162.649ZM59.0477 230.64C60.0591 230.64 61.0756 230.655 62.087 230.63C62.5037 230.62 62.9205 230.518 63.3372 230.457C74.239 228.963 83.1992 223.651 91.0261 216.214C100.637 207.08 107.005 195.795 112.255 183.784C112.967 182.158 112.26 181.68 110.908 181.314C100.566 178.503 90.2841 175.433 79.7737 173.282C71.1438 171.514 62.4631 170.39 53.6553 172.108C38.4437 175.072 27.9435 189.06 29.3869 204.467C30.815 219.727 43.2211 230.696 59.0375 230.64H59.0477Z" fill="#006980"/>
<path d="M221.639 218.334C213.141 218.319 206.3 211.563 206.198 203.09C206.097 194.759 213.324 187.561 221.761 187.586C230.187 187.612 237.303 194.82 237.191 203.217C237.074 211.655 230.187 218.349 221.639 218.334ZM228.398 203.09C228.403 199.242 225.557 196.411 221.695 196.416C217.832 196.416 214.991 199.262 215.006 203.105C215.016 206.653 218.01 209.703 221.583 209.8C225.181 209.901 228.393 206.74 228.398 203.09Z" fill="#006980"/>
</svg>
