<svg width="300" height="258" viewBox="0 0 300 258" fill="none" xmlns="http://www.w3.org/2000/svg">
<path d="M300 112.48C298.369 115.339 295.881 116.443 292.648 116.22C290.899 116.097 289.104 116.426 287.391 116.155C283.407 115.527 281.289 117.224 279.517 120.771C273.327 133.184 264.672 143.876 255.378 154.075C241.56 169.248 226.1 182.73 211.226 196.81C197.326 209.969 184.441 224.108 171.24 237.936C165.988 243.438 160.895 249.098 155.744 254.7C151.772 259.022 148.363 259.133 144.379 254.806C127.052 236.01 109.679 217.256 91.3785 199.394C77.5549 185.9 62.9334 173.247 49.497 159.348C40.0505 149.572 31.2494 139.273 24.2555 127.558C23.0351 125.515 21.6152 124.769 19.3034 124.869C15.6011 125.028 11.8929 124.94 8.18468 124.893C7.0288 124.875 5.83772 124.775 4.71704 124.499C1.4489 123.695 -0.317182 121.199 0.0407295 118.087C0.375171 115.181 2.62825 113.102 5.84359 112.932C8.07906 112.809 10.3321 112.885 12.5735 112.879C16.7041 112.867 16.7335 112.856 15.1669 109.18C10.8602 99.0804 8.3783 88.5053 8.98851 77.5662C10.8133 44.7899 27.1188 21.5024 56.356 7.08136C64.4706 3.07681 73.2248 1.15674 82.1608 0C87.2361 0 92.3114 0 97.3867 0C97.7564 0.123307 98.1143 0.299461 98.4898 0.358178C120.493 3.74619 137.262 14.9789 148.691 34.0739C150.193 36.587 150.639 35.4362 151.59 33.8214C158.255 22.5417 167.391 13.8398 178.949 7.65092C186.442 3.6405 194.516 1.52079 202.795 0H218.02C219.399 0.651767 220.907 0.317076 222.339 0.569562C242.575 4.0985 259.685 13.1998 272.751 29.2649C290.066 50.556 295.458 74.4776 287.942 101.047C287.209 103.643 287.801 104.43 290.371 104.23C294.109 103.936 297.6 104.441 300 107.8V112.486V112.48ZM212.106 134.546C213.027 134.147 213.086 133.512 213.315 132.99C216.642 125.392 220.115 117.852 223.237 110.166C224.991 105.851 227.79 104.06 232.425 104.118C245.404 104.277 258.382 104.13 271.367 104.218C273.585 104.236 274.594 103.502 275.321 101.37C278.279 92.6742 279.64 83.849 278.936 74.6303C277.463 55.4002 268.621 40.0866 254.246 27.7852C243.162 18.2965 230.096 13.1998 215.597 12.0195C204.584 11.1211 193.999 12.9062 184.218 18.3317C170.735 25.8123 161.899 37.2858 156.149 51.3369C154.975 54.2082 153.285 56.3397 150 56.2692C146.878 56.2046 145.118 54.1554 144.079 51.3839C142.495 47.1621 140.36 43.2163 138.06 39.3526C125.632 18.5137 101.799 8.07369 78.0771 12.7476C60.6861 16.1767 46.4753 24.6086 35.4563 38.4836C25.6754 50.7967 20.8113 64.8714 20.9463 80.5255C21.0343 90.7013 23.9152 100.319 27.9871 109.626C29.055 112.063 30.293 112.932 32.9686 112.92C55.0241 112.809 77.0797 112.897 99.1352 112.82C102.597 112.809 104.856 114.159 106.317 117.248C109.028 122.984 111.821 128.68 114.631 134.37C114.971 135.063 115.001 136.149 116.315 136.243C119.513 123.953 122.705 111.693 125.885 99.4327C128.507 89.3273 131.095 79.2161 133.753 69.1226C134.639 65.758 136.792 63.8791 139.55 63.7969C142.366 63.7088 144.478 65.3998 145.687 68.7115C145.887 69.2635 146.063 69.8213 146.239 70.3791C156.014 101.059 165.789 131.739 175.593 162.407C175.799 163.053 175.693 163.987 176.773 164.322C177.019 163.329 177.26 162.39 177.477 161.45C181.384 144.334 185.274 127.212 189.2 110.102C190.039 106.444 191.987 104.547 194.915 104.336C197.608 104.142 199.814 105.727 201.251 109.051C203.422 114.065 205.523 119.109 207.664 124.141C209.137 127.611 210.627 131.076 212.106 134.546ZM140.858 92.4629C140.676 92.4629 140.489 92.4687 140.307 92.4746C137.355 103.895 134.41 115.316 131.459 126.736C128.994 136.272 126.524 145.814 124.06 155.35C123.303 158.274 121.578 160.27 118.48 160.564C115.447 160.851 113.61 158.996 112.29 156.506C112.014 155.99 111.756 155.467 111.498 154.939C107.168 145.972 102.773 137.041 98.5602 128.022C97.5217 125.797 96.3188 124.81 93.7372 124.828C75.783 124.94 57.8287 124.881 39.8686 124.904C39.0413 124.904 38.1201 124.587 37.2518 125.409C37.7622 126.208 38.2551 127.024 38.7949 127.805C48.3763 141.733 60.2226 153.664 72.5442 165.056C98.8653 189.388 124.166 214.713 148.222 241.283C149.841 243.074 150.692 242.657 152.083 241.107C177.823 212.353 205.599 185.636 233.71 159.243C246.466 147.264 258.159 134.288 267.213 119.15C268.392 117.183 268.363 116.543 265.851 116.572C258.048 116.66 250.238 116.508 242.429 116.631C231.703 116.796 234.877 114.793 230.389 124.699C226.282 133.765 222.456 142.96 218.431 152.061C216.378 156.7 211.795 157.939 208.515 154.868C207.412 153.835 206.866 152.467 206.291 151.122C203.37 144.24 200.453 137.353 197.291 129.907C196.91 131.475 196.675 132.403 196.458 133.336C192.274 151.492 188.114 169.647 183.907 187.797C182.898 192.148 181.185 193.904 178.075 194.086C174.731 194.279 172.877 192.676 171.427 188.343C171.275 187.879 171.116 187.415 170.97 186.951C164.92 167.992 158.871 149.026 152.828 130.066C148.832 117.529 144.842 104.999 140.847 92.4629H140.858Z" fill="#006980"/>
</svg>
